<?xml version="1.0" encoding="UTF-8" standalone="no"?>
<!-- Created with Inkscape (http://www.inkscape.org/) -->

<svg
   xmlns:dc="http://purl.org/dc/elements/1.1/"
   xmlns:cc="http://creativecommons.org/ns#"
   xmlns:rdf="http://www.w3.org/1999/02/22-rdf-syntax-ns#"
   xmlns:svg="http://www.w3.org/2000/svg"
   xmlns="http://www.w3.org/2000/svg"
   xmlns:sodipodi="http://sodipodi.sourceforge.net/DTD/sodipodi-0.dtd"
   xmlns:inkscape="http://www.inkscape.org/namespaces/inkscape"
   width="32"
   height="32"
   viewBox="0 0 8.4666665 8.4666665"
   version="1.1"
   id="svg8"
   inkscape:version="0.91 r13725"
   sodipodi:docname="icon.svg">
  <defs
     id="defs2" />
  <sodipodi:namedview
     id="base"
     pagecolor="#ffffff"
     bordercolor="#666666"
     borderopacity="1.0"
     inkscape:pageopacity="0.0"
     inkscape:pageshadow="2"
     inkscape:zoom="22.627417"
     inkscape:cx="10.567224"
     inkscape:cy="17.581293"
     inkscape:document-units="mm"
     inkscape:current-layer="text877-3-2-6"
     showgrid="false"
     inkscape:window-width="1920"
     inkscape:window-height="1035"
     inkscape:window-x="0"
     inkscape:window-y="0"
     inkscape:window-maximized="0"
     units="px"
     fit-margin-top="0"
     fit-margin-left="0"
     fit-margin-right="0"
     fit-margin-bottom="0"
     objecttolerance="10000" />
  <metadata
     id="metadata5">
    <rdf:RDF>
      <cc:Work
         rdf:about="">
        <dc:format>image/svg+xml</dc:format>
        <dc:type
           rdf:resource="http://purl.org/dc/dcmitype/StillImage" />
        <dc:title></dc:title>
      </cc:Work>
    </rdf:RDF>
  </metadata>
  <g
     inkscape:label="レイヤー 1"
     inkscape:groupmode="layer"
     id="layer1"
     transform="translate(-0.30972429,-288.39704)">
    <g
       id="layer1-3"
       inkscape:label="レイヤー 1"
       transform="translate(101.69631,46.728632)">
      <g
         transform="translate(-73.550442,64.970889)"
         aria-label="WSIPROCESS "
         style="font-style:normal;font-variant:normal;font-weight:normal;font-stretch:normal;font-size:10.58333302px;line-height:0;font-family:'Tlwg Typo';-inkscape-font-specification:'Tlwg Typo';letter-spacing:0px;word-spacing:0px;fill:#000000;fill-opacity:1;stroke:none;stroke-width:0.26458332"
         id="text877-3-2-6"
         inkscape:export-filename="/home/metadata/path1814-326.png"
         inkscape:export-xdpi="300"
         inkscape:export-ydpi="300">
        <path
           inkscape:connector-curvature="0"
           style="font-style:normal;font-variant:normal;font-weight:normal;font-stretch:normal;font-family:'URW Bookman L';-inkscape-font-specification:'URW Bookman L';stroke-width:0.99999994"
           d="m -22.798751,177.04211 c -0.02184,0.001 -0.04393,0.005 -0.06595,0.0108 l -0.341668,0.0917 c -0.176146,0.0472 -0.280808,0.22373 -0.234734,0.39569 l 0.427366,1.5947 a 1.076169,1.076169 0 0 1 0.919559,0.43891 l 0.003,0.004 a 1.076169,1.076169 0 0 1 -0.239575,1.50192 1.076169,1.076169 0 0 1 -0.139351,0.0842 l 0.26305,0.98142 c 0.04607,0.17195 0.225136,0.27224 0.401284,0.22505 l 0.341666,-0.0913 c 0.176148,-0.0472 0.280811,-0.22374 0.234734,-0.39569 l -0.522375,-1.94941 -0.0041,-0.0208 -0.0015,0 -0.706064,-2.63535 c -0.04032,-0.15046 -0.182456,-0.24627 -0.335333,-0.23623 z m -1.140134,2.71657 c -0.562088,0.0623 -1.178489,0.37649 -1.594327,0.82642 -0.465473,0.496 -0.717243,1.16766 -0.717243,1.88495 0,1.52614 1.152073,2.67074 2.693477,2.67074 0.984361,0 1.762917,-0.43512 2.327589,-1.31265 l -0.328253,-0.18331 c -0.221291,0.32812 -0.373772,0.4961 -0.625585,0.67924 -0.366274,0.27471 -0.862194,0.45009 -1.258992,0.45009 -0.473103,0 -1.022529,-0.25149 -1.35065,-0.61776 -0.358643,-0.38917 -0.557028,-1.00741 -0.557028,-1.69418 0,-1.14344 0.536694,-2.03278 1.312274,-2.27953 a 1.076169,1.076169 0 0 1 0.09874,-0.42401 z"
           id="path1633-9-9" />
      </g>
      <rect
         style="opacity:1;fill:#000000;fill-opacity:1;fill-rule:evenodd;stroke:none;stroke-width:0.75505847;stroke-linecap:butt;stroke-linejoin:miter;stroke-miterlimit:4;stroke-dasharray:none;stroke-opacity:0.37328766;paint-order:markers stroke fill"
         id="rect1209-0-7-8-3"
         width="2.3249819"
         height="0.55902946"
         x="-157.10045"
         y="215.23242"
         rx="0.30372554"
         ry="0.18181506"
         transform="matrix(0.96592583,-0.25881905,0.25881905,0.96592583,0,0)"
         inkscape:export-filename="/home/metadata/path1814-326.png"
         inkscape:export-xdpi="300"
         inkscape:export-ydpi="300" />
      <rect
         style="opacity:1;fill:#000000;fill-opacity:1;fill-rule:evenodd;stroke:none;stroke-width:0.21278575;stroke-linecap:butt;stroke-linejoin:miter;stroke-miterlimit:4;stroke-dasharray:none;stroke-opacity:0.37328766;paint-order:markers stroke fill"
         id="rect1177-6-4-1-6-7"
         width="0.27568215"
         height="0.6533888"
         x="214.26022"
         y="155.60143"
         rx="0.076475501"
         ry="0.072011538"
         transform="matrix(0.25881905,0.96592583,-0.96592583,0.25881905,0,0)"
         inkscape:export-filename="/home/metadata/path1814-326.png"
         inkscape:export-xdpi="300"
         inkscape:export-ydpi="300" />
      <rect
         style="opacity:1;fill:#000000;fill-opacity:1;fill-rule:evenodd;stroke:none;stroke-width:0.21278575;stroke-linecap:butt;stroke-linejoin:miter;stroke-miterlimit:4;stroke-dasharray:none;stroke-opacity:0.37328766;paint-order:markers stroke fill"
         id="rect1177-6-4-1-4-8-3"
         width="0.27568215"
         height="0.6533888"
         x="208.52972"
         y="155.64232"
         rx="0.076475501"
         ry="0.072011538"
         transform="matrix(0.25881905,0.96592583,-0.96592583,0.25881905,0,0)"
         inkscape:export-filename="/home/metadata/path1814-326.png"
         inkscape:export-xdpi="300"
         inkscape:export-ydpi="300" />
      <path
         style="opacity:1;fill:#000000;fill-opacity:1;fill-rule:evenodd;stroke:none;stroke-width:0.32462654;stroke-linecap:butt;stroke-linejoin:miter;stroke-miterlimit:4;stroke-dasharray:none;stroke-opacity:1;paint-order:markers stroke fill"
         id="path1043-3-7-3-2-6-3-2"
         sodipodi:type="arc"
         sodipodi:cx="-96.515022"
         sodipodi:cy="245.17784"
         sodipodi:rx="0.84963238"
         sodipodi:ry="0.84963238"
         sodipodi:start="5.6566819"
         sodipodi:end="5.6518648"
         sodipodi:open="true"
         d="m -95.82675,244.67969 a 0.84963238,0.84963238 0 0 1 -0.189291,1.18582 0.84963238,0.84963238 0 0 1 -1.186052,-0.18786 0.84963238,0.84963238 0 0 1 0.186434,-1.18628 0.84963238,0.84963238 0 0 1 1.186501,0.18501"
         inkscape:export-xdpi="300"
         inkscape:export-ydpi="300"
         inkscape:export-filename="/home/metadata/path1814-326.png" />
      <path
         style="opacity:0.36400003;fill:#000000;fill-opacity:1;fill-rule:evenodd;stroke:none;stroke-width:0.33739591;stroke-linecap:butt;stroke-linejoin:miter;stroke-miterlimit:4;stroke-dasharray:none;stroke-opacity:0.37328766;paint-order:markers stroke fill"
         id="path1814-3-6"
         sodipodi:type="arc"
         sodipodi:cx="-97.134895"
         sodipodi:cy="249.92171"
         sodipodi:rx="3.5471332"
         sodipodi:ry="0.18667644"
         sodipodi:start="5.6566819"
         sodipodi:end="5.6518648"
         sodipodi:open="true"
         d="m -94.261425,249.81226 a 3.5471332,0.18667644 0 0 1 -0.790271,0.26054 3.5471332,0.18667644 0 0 1 -4.951654,-0.0413 3.5471332,0.18667644 0 0 1 0.778347,-0.26064 3.5471332,0.18667644 0 0 1 4.953527,0.0406"
         inkscape:export-filename="/home/metadata/path1814-326.png"
         inkscape:export-xdpi="300"
         inkscape:export-ydpi="300" />
    </g>
  </g>
</svg>
