<?xml version="1.0" encoding="UTF-8" standalone="no"?>
<svg
   xmlns:dc="http://purl.org/dc/elements/1.1/"
   xmlns:cc="http://creativecommons.org/ns#"
   xmlns:rdf="http://www.w3.org/1999/02/22-rdf-syntax-ns#"
   xmlns:svg="http://www.w3.org/2000/svg"
   xmlns="http://www.w3.org/2000/svg"
   xmlns:sodipodi="http://sodipodi.sourceforge.net/DTD/sodipodi-0.dtd"
   xmlns:inkscape="http://www.inkscape.org/namespaces/inkscape"
   height="24"
   viewBox="0 0 24 24"
   width="24"
   id="svg4198"
   version="1.1"
   inkscape:version="0.91 r13725"
   sodipodi:docname="icon.svg"
   inkscape:export-filename="/Users/takumi/Desktop/icon128.png"
   inkscape:export-xdpi="479.638"
   inkscape:export-ydpi="479.638">
  <metadata
     id="metadata4208">
    <rdf:RDF>
      <cc:Work
         rdf:about="">
        <dc:format>image/svg+xml</dc:format>
        <dc:type
           rdf:resource="http://purl.org/dc/dcmitype/StillImage" />
        <dc:title />
      </cc:Work>
    </rdf:RDF>
  </metadata>
  <defs
     id="defs4206" />
  <sodipodi:namedview
     pagecolor="#ffffff"
     bordercolor="#666666"
     borderopacity="1"
     objecttolerance="10"
     gridtolerance="10"
     guidetolerance="10"
     inkscape:pageopacity="0"
     inkscape:pageshadow="2"
     inkscape:window-width="1624"
     inkscape:window-height="946"
     id="namedview4204"
     showgrid="false"
     inkscape:zoom="5.6568543"
     inkscape:cx="-11.103936"
     inkscape:cy="19.406587"
     inkscape:window-x="2217"
     inkscape:window-y="0"
     inkscape:window-maximized="0"
     inkscape:current-layer="svg4198" />
  <path
     d="M0 0h24v24H0z"
     fill="none"
     id="path4202" />
  <g
     id="g4208"
     transform="translate(0,0.125)">
    <path
       id="path4198"
       d="M 0,0 24,0 24,24 0,24 Z"
       inkscape:connector-curvature="0"
       style="fill:none" />
    <path
       id="path4200"
       d="M 14,2 6,2 C 4.9,2 4.01,2.9 4.01,4 L 4,20 c 0,1.1 0.89,2 1.99,2 L 18,22 c 1.1,0 2,-0.9 2,-2 L 20,8 Z"
       inkscape:connector-curvature="0"
       sodipodi:nodetypes="csccssscc" />
  </g>
  <g
     id="g4889"
     transform="matrix(0.61541982,0,0,0.62021601,2.6868908,6.4348403)"
     style="fill:#ffffff;fill-opacity:1;stroke:#ffffff;stroke-width:0.99988145;stroke-miterlimit:4;stroke-dasharray:none;stroke-opacity:1">
    <path
       id="path4879"
       d="m 15.184411,13.457809 c 2.036094,0 3.667422,-1.643594 3.667422,-3.6796883 l 0.01226,-7.3593754 c 0,-2.03609383 -1.643593,-3.6796876 -3.679687,-3.6796876 -2.036094,0 -3.679687,1.64359377 -3.679687,3.6796876 l 0,7.3593754 c 0,2.0360943 1.643593,3.6796883 3.679692,3.6796883 z m 6.500781,-3.6796883 c 0,3.6796883 -3.115469,6.2554693 -6.500781,6.2554693 -3.385313,0 -6.5007812,-2.575781 -6.5007812,-6.2554693 l -2.0851563,0 c 0,4.1825783 3.33625,7.6414843 7.3593745,8.2425003 l 0,4.023125 2.453125,0 0,-4.023125 c 4.023125,-0.58875 7.359375,-4.047656 7.359375,-8.2425003 z"
       inkscape:connector-curvature="0"
       style="fill:#ffffff;fill-opacity:1;stroke:#ffffff;stroke-width:0.99988145;stroke-miterlimit:4;stroke-dasharray:none;stroke-opacity:1"
       sodipodi:nodetypes="sccsssscscccccccc" />
  </g>
</svg>
