<?xml version="1.0" encoding="UTF-8" standalone="no"?>
<!-- Created with Inkscape (http://www.inkscape.org/) -->

<svg
   xmlns:dc="http://purl.org/dc/elements/1.1/"
   xmlns:cc="http://creativecommons.org/ns#"
   xmlns:rdf="http://www.w3.org/1999/02/22-rdf-syntax-ns#"
   xmlns:svg="http://www.w3.org/2000/svg"
   xmlns="http://www.w3.org/2000/svg"
   xmlns:sodipodi="http://sodipodi.sourceforge.net/DTD/sodipodi-0.dtd"
   xmlns:inkscape="http://www.inkscape.org/namespaces/inkscape"
   width="230"
   height="38"
   viewBox="0 0 230 38"
   id="svg2"
   version="1.1"
   inkscape:version="0.91 r13725"
   sodipodi:docname="takumiando.svg">
  <defs
     id="defs4" />
  <sodipodi:namedview
     id="base"
     pagecolor="#ffffff"
     bordercolor="#666666"
     borderopacity="1.0"
     inkscape:pageopacity="0.0"
     inkscape:pageshadow="2"
     inkscape:zoom="1"
     inkscape:cx="43.045896"
     inkscape:cy="263.51558"
     inkscape:document-units="px"
     inkscape:current-layer="flowRoot4136"
     showgrid="false"
     inkscape:window-width="1920"
     inkscape:window-height="1035"
     inkscape:window-x="1920"
     inkscape:window-y="1"
     inkscape:window-maximized="1"
     units="px" />
  <metadata
     id="metadata7">
    <rdf:RDF>
      <cc:Work
         rdf:about="">
        <dc:format>image/svg+xml</dc:format>
        <dc:type
           rdf:resource="http://purl.org/dc/dcmitype/StillImage" />
        <dc:title></dc:title>
      </cc:Work>
    </rdf:RDF>
  </metadata>
  <g
     inkscape:label="Layer 1"
     inkscape:groupmode="layer"
     id="layer1"
     transform="translate(0,-1014.3618)">
    <g
       transform="translate(-2.2728432,-14.142136)"
       style="font-style:normal;font-variant:normal;font-weight:500;font-stretch:normal;font-size:40px;line-height:125%;font-family:'Apple Chancery';-inkscape-font-specification:'Apple Chancery, Medium';text-align:start;letter-spacing:0px;word-spacing:0px;writing-mode:lr-tb;text-anchor:start;fill:#fed136;fill-opacity:1;stroke:none;stroke-width:1px;stroke-linecap:butt;stroke-linejoin:miter;stroke-opacity:1"
       id="flowRoot4136">
      <path
         d="m 6.551933,1050.3757 -3.183594,3.0469 q -0.449219,-1.5235 -0.449219,-2.9883 0,-5.3711 4.472656,-8.6914 3.339844,-2.4805 9.199219,-2.4805 l 11.660156,0 q 7.246094,0 7.246094,-4.4727 0,-1.5625 -1.074219,-2.8906 l 2.460938,-2.3437 q 0.859375,1.1718 0.859375,3.0078 0,3.8476 -3.476563,6.4648 -3.457031,2.5977 -8.554687,2.5977 l -5.429688,0 -1.464843,13.2031 -0.234375,2.168 q -0.332032,2.7734 -1.210938,4.0039 -0.859375,1.2304 -3.339843,2.4023 l 5.683593,0.293 -2.34375,2.2656 -9.53125,-0.4297 2.519531,-2.4218 2.128907,0.2343 q 2.363281,-1.5039 2.929687,-6.1523 l 0.195313,-1.8945 1.523437,-13.6719 -3.320312,0 q -8.183594,0 -8.183594,5.4101 0,1.6407 0.917969,3.3399 z"
         id="path4138"
         inkscape:connector-curvature="0" />
      <path
         d="m 39.6875,1057.778 q -2.207031,3.6328 -4.863281,5.9571 -2.636719,2.3046 -4.589844,2.3046 -2.675781,0 -2.675781,-4.3164 0,-5.9375 3.886718,-10.2734 3.90625,-4.3555 9.238282,-4.3555 2.03125,0 3.457031,0.5078 -0.09766,0.3516 -0.117188,0.4297 l -0.234375,1.0352 q -0.234375,1.0742 -0.253906,1.25 l -1.25,8.6328 -0.175781,1.25 q -0.253906,1.8555 -0.253906,2.4805 0,0.8398 0.488281,0.8398 1.640625,0 3.359375,-3.6719 0.527344,0.3125 0.527344,0.625 0,0.6836 -1.679688,2.7539 -2.285156,2.8125 -4.238281,2.8125 -1.425781,0 -1.425781,-1.914 0,-0.586 0.136718,-1.6211 l 0.195313,-1.5625 0.253906,-1.7188 0.214844,-1.4453 z m 1.113281,-7.7539 q -1.777344,-0.9961 -3.59375,-0.9961 -2.734375,0 -4.589844,3.3399 -1.855468,3.3398 -1.855468,8.2812 0,2.5391 1.503906,2.5391 1.738281,0 4.199219,-2.6563 3.320312,-3.5742 4.023437,-8.3984 l 0.3125,-2.1094 z"
         id="path4140"
         inkscape:connector-curvature="0" />
      <path
         d="m 53.359375,1053.2468 q 1.464844,-2.7344 3.671875,-4.5703 2.226562,-1.836 4.082031,-1.836 2.5,0 2.5,2.5781 0,2.461 -2.089844,4.5118 -2.070312,2.0312 -5.488281,2.9297 3.710938,6.6601 5.527344,6.6601 1.308594,0 2.753906,-2.2851 0.449219,0.332 0.449219,0.6445 0,0.918 -1.796875,2.5195 -1.796875,1.6016 -2.890625,1.6406 -1.953125,0.098 -6.640625,-8.3007 l -0.488281,-0.8789 -0.878907,7.9882 -2.910156,1.1914 0.05859,-0.5468 0.15625,-1.4453 0.15625,-1.3672 1.914062,-17.1094 q 0.664063,-6.0742 4.472657,-10.3516 3.808593,-4.2773 8.535156,-4.2773 0.976562,0 1.875,0.2148 l -2.871094,2.8125 q -1.113281,-0.332 -2.109375,-0.332 -5.800781,0 -6.816406,9.0625 l -1.171875,10.5469 z m -0.351563,3.0273 q 3.144532,0 5.253907,-1.4062 2.109375,-1.4258 2.109375,-3.5157 0,-2.1093 -1.484375,-2.1093 -1.367188,0 -3.046875,2.0117 -1.660157,1.9922 -2.832032,5.0195 z"
         id="path4142"
         inkscape:connector-curvature="0" />
      <path
         d="m 80.742187,1057.8561 q -2.226562,3.418 -5.019531,5.8008 -2.792969,2.3828 -4.550781,2.3828 -1.933594,0 -1.933594,-2.5781 0,-0.957 0.253906,-3.1445 l 0.703125,-6.4063 q 0.01953,-0.1367 0.09766,-1.1328 l 0.117187,-1.2695 q 0.05859,-0.5664 0.05859,-1.0156 0,-1.1328 -0.644531,-1.1328 -1.484375,0 -3.203125,3.3398 -0.371093,-0.293 -0.371093,-0.625 0,-1.2109 2.148437,-3.2227 2.167969,-2.0117 3.4375,-2.0117 1.621094,0 1.621094,2.2266 0,0.5273 -0.07813,1.2305 l -0.175781,1.5039 -0.175781,1.6406 -0.625,5.5859 q -0.15625,1.4258 -0.15625,2.8906 0,1.3477 0.996093,1.3477 2.207032,0 4.980469,-3.6328 2.792969,-3.6328 3.300781,-7.1875 l 0.664063,-4.6289 3.164062,-1.0742 q -0.546875,2.2656 -0.820312,4.0429 l -1.171875,8.1641 q -0.09766,0.7422 -0.15625,1.25 l -0.136719,1.0742 q -0.117187,0.9961 -0.117187,1.4063 0,0.8398 0.46875,0.8398 1.660156,0 3.378906,-3.6719 0.527344,0.3125 0.527344,0.625 0,0.6836 -1.699219,2.7539 -2.285156,2.8125 -4.238281,2.8125 -1.425782,0 -1.425782,-1.914 0,-0.6055 0.136719,-1.6211 l 0.214844,-1.5625 q 0.175781,-1.2695 0.234375,-1.7188 l 0.195312,-1.3672 z"
         id="path4144"
         inkscape:connector-curvature="0" />
      <path
         d="m 104.27734,1064.8483 -2.89062,1.1914 0.0586,-0.5468 0.15625,-1.4453 0.13672,-1.3672 0.97656,-8.7696 0.13672,-0.9961 q 0.0781,-0.7812 0.0781,-1.5234 0,-1.8945 -1.15235,-1.8945 -1.79687,0 -4.19921,3.6718 -2.38282,3.6719 -2.753911,6.9922 l -0.507813,4.6875 -2.910156,1.1914 0.05859,-0.5468 0.15625,-1.4453 0.15625,-1.3672 0.996093,-9.0625 0.117188,-1.0352 q 0.136719,-1.2109 0.136719,-1.9531 0,-1.25 -0.625,-1.25 -1.464844,0 -3.164063,3.3203 -0.449219,-0.3711 -0.449219,-0.6445 0,-1.1719 2.128907,-3.1836 2.148437,-2.0313 3.398437,-2.0313 1.679688,0 1.679688,2.1485 0,0.5468 -0.0977,1.4648 l -0.15625,1.582 -0.15625,1.3282 -0.15625,1.3867 0.54687,-0.8594 q 4.375,-7.0508 8.14453,-7.0508 1.81641,0 1.81641,2.6172 0,0.4492 -0.15625,1.8945 l -0.19531,1.7969 -0.27344,2.4414 q 1.81641,-3.7695 4.29688,-6.25 2.5,-2.5 4.45312,-2.5 1.93359,0 1.93359,2.5 0,1.0742 -0.21484,2.5586 l -1.03516,7.2461 q -0.33203,2.2461 -0.33203,3.4766 0,1.0351 0.56641,1.0351 0.66406,0 1.66016,-1.1133 1.01562,-1.1132 1.62109,-2.5195 0.52734,0.3516 0.52734,0.6445 0,1.2305 -2.1875,3.3008 -2.16797,2.0703 -3.45703,2.0703 -1.66015,0 -1.66015,-2.2265 0,-1.4063 0.42968,-4.3555 l 0.6836,-4.707 q 0.0391,-0.2539 0.13672,-1.1133 0.0391,-0.3516 0.13671,-1.1914 0.0977,-0.8399 0.0977,-1.2891 0,-1.6601 -1.09375,-1.6601 -1.83594,0 -4.27734,3.6718 -2.42188,3.6719 -2.79297,6.9922 l -0.52735,4.6875 z"
         id="path4146"
         inkscape:connector-curvature="0" />
      <path
         d="m 130.05859,1059.8483 q 0.52735,0.3125 0.52735,0.6055 0,0.7031 -1.69922,2.7734 -2.28516,2.8125 -4.23828,2.8125 -1.42578,0 -1.42578,-1.8945 0,-0.8008 0.58593,-4.9219 l 0.76172,-5.3125 0.19531,-1.3476 0.15625,-1.0742 q 0.0977,-0.6836 0.0977,-1.1524 0,-0.9765 -0.54687,-0.9765 -1.52344,0 -3.28125,3.3593 -0.3711,-0.332 -0.3711,-0.664 0,-1.1914 2.1875,-3.2032 2.20703,-2.0117 3.51563,-2.0117 1.46484,0 1.46484,2.0313 0,0.3906 -0.15625,1.6015 l -0.17578,1.3086 q -0.0195,0.1563 -0.21484,1.5821 l -0.80079,5.5859 -0.19531,1.25 q -0.2539,1.8555 -0.2539,2.4805 0,0.8398 0.48828,0.8398 1.64062,0 3.3789,-3.6719 z m -3.92578,-15.5273 1.64063,-4.043 q 2.1875,-0.8984 3.59375,-2.4804 0.19531,0.2734 0.19531,0.5664 0,2.6171 -5.42969,5.957 z"
         id="path4148"
         inkscape:connector-curvature="0" />
      <path
         d="m 147.71484,1050.4147 -3.0664,2.9493 q -0.80078,-2.0899 -0.80078,-4.043 0,-4.8438 4.19921,-7.8125 3.51563,-2.5 12.03125,-2.5 1.44532,0 2.53907,0.059 3.02734,0.1953 3.10547,0.1953 l 1.36718,0 q -1.52343,2.3828 -1.52343,9.6484 l 0.0195,1.0157 0.0781,2.2461 q 0,4.0429 0.9961,8.2812 0.39062,1.6406 0.76171,2.1094 0.3711,0.4687 1.28907,0.4687 0.99609,0 2.26562,-0.6445 0.13672,0.332 0.13672,0.5469 0,0.4883 -0.76172,0.8398 l -0.91797,0.4492 -4.80468,2.0899 q -1.60157,-4.9414 -1.9336,-10.3516 l -1.48437,1.0352 -6.5625,0 q -1.79688,4.5703 -4.92188,6.5234 l 4.04297,0.1953 -2.10937,2.2266 -7.79297,-0.2734 2.59765,-2.3438 1.95313,0.1172 q 1.32812,-0.9766 2.26562,-2.7344 0.9375,-1.7773 2.79297,-6.8555 l 0.58594,-1.621 q 1.79687,-4.9024 3.41797,-7.129 1.62109,-2.246 4.41406,-3.6914 -3.06641,-0.5664 -6.46484,-0.5664 -8.65235,0 -8.65235,5.8399 0,1.9922 0.9375,3.7304 z m 14.94141,4.4727 q -0.27344,-3.3984 -0.27344,-5.5078 0,-1.0742 0.0391,-1.7578 l 0.15625,-2.2657 q 0.15625,-2.3242 0.42969,-3.5546 -3.82812,2.3437 -6.28906,9.5703 -0.70313,2.0898 -0.82031,2.4023 l -0.44922,1.1133 7.20703,0 z"
         id="path4150"
         inkscape:connector-curvature="0" />
      <path
         d="m 177.5,1064.8483 -2.91016,1.1914 0.0586,-0.5468 0.15625,-1.4453 0.15625,-1.3672 1.01562,-9.0625 0.11719,-1.0352 q 0.11719,-1.2109 0.11719,-1.9531 0,-1.25 -0.625,-1.25 -1.46485,0 -3.14453,3.3203 -0.44922,-0.3711 -0.44922,-0.6445 0,-1.1719 2.1289,-3.1836 2.14844,-2.0313 3.37891,-2.0313 1.67969,0 1.67969,2.1485 0,0.5468 -0.0977,1.4648 l -0.15625,1.582 -0.15625,1.3282 -0.15625,1.3867 q 2.30469,-3.4375 5.03906,-5.6641 2.75391,-2.2461 4.6875,-2.2461 1.89453,0 1.89453,2.6367 0,0.8008 -0.21484,2.4024 l -1.05469,7.2851 q -0.3125,2.1875 -0.3125,3.4571 0,1.0156 0.54688,1.0156 1.34765,0 3.32031,-3.5938 0.46875,0.293 0.46875,0.6055 0,1.2695 -2.1875,3.3399 -2.16797,2.0507 -3.53516,2.0507 -1.52343,0 -1.52343,-2.1875 0,-1.6015 0.41015,-4.4336 l 0.6836,-4.7265 q 0.33203,-2.3047 0.33203,-3.6524 0,-1.5429 -1.07422,-1.5429 -2.5,0 -5.07813,3.3984 -2.55859,3.3789 -2.98828,7.2656 l -0.52734,4.6875 z"
         id="path4152"
         inkscape:connector-curvature="0" />
      <path
         d="m 207.87109,1047.1335 0.19532,-1.6797 q 0.70312,-6.25 4.25781,-10.3906 3.57422,-4.1406 8.22265,-4.1406 1.11329,0 1.91407,0.1953 l -2.77344,2.832 q -0.91797,-0.3125 -2.16797,-0.3125 -2.92969,0 -4.375,2.0508 -1.44531,2.0508 -1.99219,6.9922 l -1.8164,16.2695 -0.13672,1.25 q -0.17578,1.6602 -0.17578,2.3633 0,0.957 0.50781,0.957 1.62109,0 3.26172,-3.6719 0.52734,0.3125 0.52734,0.625 0,0.7032 -1.58203,2.7539 -2.20703,2.8125 -4.14062,2.8125 -1.50391,0 -1.50391,-2.0703 0,-0.7617 0.23437,-3.0273 l 0.19532,-1.7188 0.15625,-1.4453 q -1.32813,2.9297 -4.31641,5.6055 -2.96875,2.6562 -4.90234,2.6562 -2.75391,0 -2.75391,-4.3164 0,-5.6445 3.80859,-10.1367 3.8086,-4.4922 8.59375,-4.4922 0.23438,0 0.76172,0.039 z m -0.3125,2.793 q -1.64062,-0.8985 -3.00781,-0.8985 -2.89062,0 -4.76562,3.2813 -1.875,3.2812 -1.875,8.3398 0,2.5391 1.48437,2.5391 1.79688,0 4.21875,-2.6563 3.14453,-3.4179 3.71094,-8.3984 l 0.23437,-2.207 z"
         id="path4154"
         inkscape:connector-curvature="0" />
      <path
         d="m 219.6875,1066.0397 q -4.39453,0 -4.39453,-5.8203 0,-4.6875 3.4375,-9.0234 3.4375,-4.3555 7.1289,-4.3555 4.45313,0 4.45313,5.8203 0,4.7071 -3.4375,9.043 -3.4375,4.3359 -7.1875,4.3359 z m 2.36328,-2.1875 q 2.24609,0 3.75,-2.5 1.52344,-2.5 1.52344,-6.2304 0,-6.0938 -3.78906,-6.0938 -2.22657,0 -3.75,2.5196 -1.50391,2.5 -1.50391,6.2109 0,6.0937 3.76953,6.0937 z"
         id="path4156"
         inkscape:connector-curvature="0" />
    </g>
  </g>
</svg>
